# xmcd CD database file
#
# Track frame offsets:
#	150
#	11485
#	28637
#	49600
#	65497
#	81455
#	100622
#	118635
#	140225
#	161265
#
# Disc length: 2406 seconds
#
# Revision: 0
# Processed by: cddbd v1.5.1PL0 Copyright (c) Steve Scherf et al.
# Submitted via: CDex 1.51
#
DISCID=7d09640a
DTITLE=久保田早紀 - AIRMAIL SPECIAL
DYEAR=1981
DGENRE=Pop
TTITLE0=プロローグ
TTITLE1=オレンジ・エアメール・スペシャル
TTITLE2=キャンパス街'81
TTITLE3=日本の子供達
TTITLE4=1999
TTITLE5=アミューズメント・ゾーン
TTITLE6=上海ノスタルジー
TTITLE7=アンニュイ
TTITLE8=パノラマ
TTITLE9=長い夜
EXTD=YEAR: 1981
EXTT0=
EXTT1=
EXTT2=
EXTT3=
EXTT4=
EXTT5=
EXTT6=
EXTT7=
EXTT8=
EXTT9=
PLAYORDER=
